<mxfile host="app.diagrams.net" modified="2023-04-13T22:23:14.900Z" agent="Mozilla/5.0 (Windows NT 10.0; Win64; x64; rv:109.0) Gecko/20100101 Firefox/111.0" etag="5wNAl5Ic6Iega_gwQqN2" version="21.1.2" type="github">
  <diagram name="Seite-1" id="r9SchGLrDLa7gwqFR3Kt">
    <mxGraphModel dx="2074" dy="1114" grid="1" gridSize="10" guides="1" tooltips="1" connect="1" arrows="1" fold="1" page="1" pageScale="1" pageWidth="827" pageHeight="1169" math="0" shadow="0">
      <root>
        <mxCell id="0" />
        <mxCell id="1" parent="0" />
        <mxCell id="gq9Lb8jiTcREuKkAHGY3-15" style="edgeStyle=orthogonalEdgeStyle;rounded=0;orthogonalLoop=1;jettySize=auto;html=1;exitX=1;exitY=0.5;exitDx=0;exitDy=0;entryX=0;entryY=0.5;entryDx=0;entryDy=0;" parent="1" source="gq9Lb8jiTcREuKkAHGY3-1" target="gq9Lb8jiTcREuKkAHGY3-11" edge="1">
          <mxGeometry relative="1" as="geometry" />
        </mxCell>
        <mxCell id="gq9Lb8jiTcREuKkAHGY3-1" value="&lt;div align=&quot;left&quot;&gt;Potion objects&lt;/div&gt;&lt;div align=&quot;left&quot;&gt;&amp;nbsp; - Generation of objects&lt;/div&gt;&lt;div align=&quot;left&quot;&gt;&amp;nbsp;&amp;nbsp;&amp;nbsp; (potion object in the class)&lt;/div&gt;&lt;div align=&quot;left&quot;&gt;&amp;nbsp; - Instantiation&lt;br&gt;&lt;/div&gt;&lt;div align=&quot;left&quot;&gt;&amp;nbsp; - Manipulation&lt;/div&gt;&lt;div align=&quot;left&quot;&gt;&amp;nbsp; - Save/storage&lt;/div&gt;&lt;div align=&quot;left&quot;&gt;&amp;nbsp; - Information distribution&lt;br&gt;&lt;/div&gt;&lt;div align=&quot;left&quot;&gt;&lt;br&gt;&lt;/div&gt;" style="whiteSpace=wrap;html=1;align=left;" parent="1" vertex="1">
          <mxGeometry x="290" y="230" width="160" height="140" as="geometry" />
        </mxCell>
        <mxCell id="gq9Lb8jiTcREuKkAHGY3-2" value="Potion Class" style="rounded=0;whiteSpace=wrap;html=1;strokeColor=default;dashed=1;" parent="1" vertex="1">
          <mxGeometry x="300" y="200" width="90" height="30" as="geometry" />
        </mxCell>
        <mxCell id="gq9Lb8jiTcREuKkAHGY3-3" value="Utilizing scripts" style="rounded=0;whiteSpace=wrap;html=1;dashed=1;" parent="1" vertex="1">
          <mxGeometry x="110" y="200" width="90" height="30" as="geometry" />
        </mxCell>
        <mxCell id="gq9Lb8jiTcREuKkAHGY3-5" style="edgeStyle=orthogonalEdgeStyle;rounded=0;orthogonalLoop=1;jettySize=auto;html=1;exitX=1;exitY=0.5;exitDx=0;exitDy=0;" parent="1" source="gq9Lb8jiTcREuKkAHGY3-4" target="gq9Lb8jiTcREuKkAHGY3-1" edge="1">
          <mxGeometry relative="1" as="geometry" />
        </mxCell>
        <mxCell id="gq9Lb8jiTcREuKkAHGY3-4" value="&lt;div&gt;Potion Behavior&lt;/div&gt;&lt;div&gt;(start script)&lt;br&gt;&lt;/div&gt;" style="whiteSpace=wrap;html=1;" parent="1" vertex="1">
          <mxGeometry x="110" y="230" width="110" height="60" as="geometry" />
        </mxCell>
        <mxCell id="gq9Lb8jiTcREuKkAHGY3-7" style="edgeStyle=orthogonalEdgeStyle;rounded=0;orthogonalLoop=1;jettySize=auto;html=1;exitX=1;exitY=0.5;exitDx=0;exitDy=0;entryX=0;entryY=0.5;entryDx=0;entryDy=0;" parent="1" source="gq9Lb8jiTcREuKkAHGY3-6" target="gq9Lb8jiTcREuKkAHGY3-1" edge="1">
          <mxGeometry relative="1" as="geometry" />
        </mxCell>
        <mxCell id="gq9Lb8jiTcREuKkAHGY3-6" value="&lt;div&gt;Mixer script on &lt;br&gt;&lt;/div&gt;&lt;div&gt;Mixing Machine&lt;br&gt;&lt;/div&gt;" style="whiteSpace=wrap;html=1;" parent="1" vertex="1">
          <mxGeometry x="110" y="290" width="110" height="60" as="geometry" />
        </mxCell>
        <mxCell id="gq9Lb8jiTcREuKkAHGY3-25" style="edgeStyle=orthogonalEdgeStyle;rounded=0;orthogonalLoop=1;jettySize=auto;html=1;entryX=1;entryY=0.714;entryDx=0;entryDy=0;entryPerimeter=0;" parent="1" source="gq9Lb8jiTcREuKkAHGY3-11" target="gq9Lb8jiTcREuKkAHGY3-1" edge="1">
          <mxGeometry relative="1" as="geometry">
            <mxPoint x="470" y="330" as="targetPoint" />
            <Array as="points">
              <mxPoint x="690" y="300" />
              <mxPoint x="690" y="330" />
            </Array>
          </mxGeometry>
        </mxCell>
        <mxCell id="gq9Lb8jiTcREuKkAHGY3-11" value="&lt;div align=&quot;left&quot;&gt;- ID, name&lt;br&gt;&lt;/div&gt;&lt;div align=&quot;left&quot;&gt;- Visual stats&lt;/div&gt;" style="whiteSpace=wrap;html=1;align=left;" parent="1" vertex="1">
          <mxGeometry x="580" y="280" width="90" height="40" as="geometry" />
        </mxCell>
        <mxCell id="gq9Lb8jiTcREuKkAHGY3-12" value="Potion Stats script" style="rounded=0;whiteSpace=wrap;html=1;strokeColor=default;dashed=1;" parent="1" vertex="1">
          <mxGeometry x="580" y="254" width="70" height="30" as="geometry" />
        </mxCell>
        <mxCell id="gq9Lb8jiTcREuKkAHGY3-19" value="" style="endArrow=none;html=1;rounded=0;" parent="1" target="gq9Lb8jiTcREuKkAHGY3-21" edge="1">
          <mxGeometry width="50" height="50" relative="1" as="geometry">
            <mxPoint x="520" y="300" as="sourcePoint" />
            <mxPoint x="510" y="253" as="targetPoint" />
          </mxGeometry>
        </mxCell>
        <mxCell id="gq9Lb8jiTcREuKkAHGY3-22" style="rounded=0;orthogonalLoop=1;jettySize=auto;html=1;exitX=0.5;exitY=0;exitDx=0;exitDy=0;exitPerimeter=0;endArrow=none;endFill=0;" parent="1" source="gq9Lb8jiTcREuKkAHGY3-20" target="gq9Lb8jiTcREuKkAHGY3-1" edge="1">
          <mxGeometry relative="1" as="geometry" />
        </mxCell>
        <mxCell id="gq9Lb8jiTcREuKkAHGY3-20" value="&lt;div&gt;&lt;br&gt;&lt;/div&gt;&lt;div&gt;Class&lt;/div&gt;&lt;div&gt;Potion&lt;/div&gt;&lt;div&gt;Object&lt;br&gt;&lt;/div&gt;&lt;div&gt;&lt;br&gt;&lt;/div&gt;" style="shape=cylinder3;whiteSpace=wrap;html=1;boundedLbl=1;backgroundOutline=1;size=15;fillColor=#ffe6cc;strokeColor=#d79b00;" parent="1" vertex="1">
          <mxGeometry x="340" y="390" width="60" height="80" as="geometry" />
        </mxCell>
        <mxCell id="gq9Lb8jiTcREuKkAHGY3-21" value="&lt;div&gt;Potion&lt;/div&gt;&lt;div&gt;Prefab&lt;br&gt;&lt;/div&gt;" style="shape=cylinder3;whiteSpace=wrap;html=1;boundedLbl=1;backgroundOutline=1;size=15;fillColor=#f5f5f5;strokeColor=#666666;fontColor=#333333;" parent="1" vertex="1">
          <mxGeometry x="495" y="210" width="50" height="65" as="geometry" />
        </mxCell>
        <mxCell id="gq9Lb8jiTcREuKkAHGY3-23" value="&lt;div&gt;&lt;br&gt;&lt;/div&gt;&lt;div&gt;Mono-&lt;/div&gt;&lt;div&gt;Behaviour&lt;br&gt;&lt;/div&gt;&lt;div&gt;Object&lt;br&gt;&lt;/div&gt;&lt;div&gt;&lt;br&gt;&lt;/div&gt;" style="shape=cylinder3;whiteSpace=wrap;html=1;boundedLbl=1;backgroundOutline=1;size=15;fillColor=#dae8fc;strokeColor=#6c8ebf;" parent="1" vertex="1">
          <mxGeometry x="590" y="370" width="70" height="80" as="geometry" />
        </mxCell>
        <mxCell id="gq9Lb8jiTcREuKkAHGY3-24" style="rounded=0;orthogonalLoop=1;jettySize=auto;html=1;exitX=0.5;exitY=0;exitDx=0;exitDy=0;exitPerimeter=0;endArrow=none;endFill=0;" parent="1" source="gq9Lb8jiTcREuKkAHGY3-23" edge="1">
          <mxGeometry relative="1" as="geometry">
            <mxPoint x="625" y="320" as="targetPoint" />
          </mxGeometry>
        </mxCell>
        <mxCell id="gq9Lb8jiTcREuKkAHGY3-27" style="edgeStyle=orthogonalEdgeStyle;rounded=0;orthogonalLoop=1;jettySize=auto;html=1;exitX=1;exitY=0.5;exitDx=0;exitDy=0;entryX=0;entryY=0.5;entryDx=0;entryDy=0;" parent="1" source="gq9Lb8jiTcREuKkAHGY3-26" target="gq9Lb8jiTcREuKkAHGY3-1" edge="1">
          <mxGeometry relative="1" as="geometry" />
        </mxCell>
        <mxCell id="gq9Lb8jiTcREuKkAHGY3-26" value="&lt;div&gt;Generation of&lt;/div&gt;&lt;div&gt;findable potions&lt;/div&gt;&lt;div&gt;(chests, storywise.)&lt;br&gt;&lt;/div&gt;" style="whiteSpace=wrap;html=1;" parent="1" vertex="1">
          <mxGeometry x="110" y="350" width="110" height="60" as="geometry" />
        </mxCell>
      </root>
    </mxGraphModel>
  </diagram>
</mxfile>
